<svg width="21" height="21" viewBox="0 0 21 21" fill="none" xmlns="http://www.w3.org/2000/svg">
<path d="M10.3691 0.00661101L10.5 0C11.163 0 11.7083 0.503872 11.7739 1.14957L11.7805 1.28049V9.21951H19.7195C20.3825 9.21951 20.9278 9.72338 20.9934 10.3691L21 10.5C21 11.163 20.4961 11.7083 19.8504 11.7739L19.7195 11.7805H11.7805V19.7195C11.7805 20.3825 11.2766 20.9278 10.6309 20.9934L10.5 21C9.83701 21 9.2917 20.4961 9.22612 19.8504L9.21951 19.7195V11.7805H1.28049C0.617494 11.7805 0.0721848 11.2766 0.00661101 10.6309L0 10.5C0 9.83701 0.503872 9.2917 1.14957 9.22612L1.28049 9.21951H9.21951V1.28049C9.21951 0.617494 9.72338 0.0721848 10.3691 0.00661101L10.5 0L10.3691 0.00661101Z" fill="black"/>
</svg>
