<svg width="20" height="20" viewBox="0 0 20 20" fill="none" xmlns="http://www.w3.org/2000/svg">
<path fill-rule="evenodd" clip-rule="evenodd" d="M19.4223 3.13608C20.1378 2.41664 20.1363 1.25379 19.4188 0.536274L19.2844 0.414394C18.5635 -0.177471 17.4971 -0.135021 16.8259 0.539755L7.94227 9.47125C7.14711 10.2707 6.58129 11.2691 6.30396 12.362L5.93698 13.8082L5.94447 13.864C5.9689 13.9528 6.05023 14.0181 6.14679 14.0181L7.55166 13.6956C8.7095 13.4298 9.76849 12.8418 10.6062 11.9996L19.4223 3.13608ZM8.91712 3.47714C8.91712 3.0426 8.56485 2.69034 8.13031 2.69034H3.40949L3.21601 2.69573C1.42302 2.79603 0 4.28175 0 6.09982V16.5906L0.00539726 16.784C0.105698 18.577 1.59141 20 3.40949 20H13.9002L14.0937 19.9946C15.8867 19.8943 17.3097 18.4086 17.3097 16.5906L17.3039 11.8688C17.3034 11.4346 16.9513 11.0829 16.5171 11.0829H15.4738C15.0393 11.0829 14.687 11.4352 14.687 11.8697V16.5906L14.6798 16.6973C14.6277 17.0814 14.2985 17.3774 13.9002 17.3774H3.40949L3.30272 17.3702C2.91868 17.3181 2.62268 16.9889 2.62268 16.5906V6.09982L2.62986 5.99306C2.68196 5.60902 3.01116 5.31302 3.40949 5.31302L8.13128 5.30721C8.56544 5.30668 8.91712 4.95457 8.91712 4.52041V3.47714Z" fill="black"/>
</svg>
