<svg width="20" height="18" viewBox="0 0 20 18" fill="none" xmlns="http://www.w3.org/2000/svg">
<path fill-rule="evenodd" clip-rule="evenodd" d="M11.698 0C12.2137 0 12.7104 0.194223 13.0893 0.543993L14.4107 1.7637C14.7422 2.06975 15.164 2.25671 15.6097 2.29866L15.802 2.30769H16.4103C18.3928 2.30769 20 3.91488 20 5.89744V14.1026C20 16.0851 18.3928 17.6923 16.4103 17.6923H3.58974C1.60718 17.6923 0 16.0851 0 14.1026V5.89744C0 3.91488 1.60718 2.30769 3.58974 2.30769H4.19798C4.71365 2.30769 5.21041 2.11347 5.58933 1.7637L6.91067 0.543993C7.28959 0.194223 7.78635 0 8.30202 0H11.698ZM10 4.61538C7.16777 4.61538 4.87179 6.91136 4.87179 9.74359C4.87179 12.5758 7.16777 14.8718 10 14.8718C12.8322 14.8718 15.1282 12.5758 15.1282 9.74359C15.1282 6.91136 12.8322 4.61538 10 4.61538ZM10 6.15385C11.9826 6.15385 13.5897 7.76103 13.5897 9.74359C13.5897 11.7262 11.9826 13.3333 10 13.3333C8.01744 13.3333 6.41026 11.7262 6.41026 9.74359C6.41026 7.76103 8.01744 6.15385 10 6.15385Z" fill="black"/>
</svg>
