<svg width="16" height="16" viewBox="0 0 16 16" fill="none" xmlns="http://www.w3.org/2000/svg">
<path fill-rule="evenodd" clip-rule="evenodd" d="M12.8398 6.4199C12.8398 2.87429 9.96552 0 6.4199 0C2.87429 0 0 2.87429 0 6.4199C0 9.96552 2.87429 12.8398 6.4199 12.8398C7.8095 12.8398 9.09598 12.3983 10.1467 11.6479L14.2306 15.7314L14.3245 15.8135C14.684 16.0871 15.1993 16.0597 15.5276 15.7314C15.8858 15.3733 15.8858 14.7926 15.5276 14.4344L11.4731 10.3801C12.3293 9.28924 12.8398 7.91419 12.8398 6.4199ZM1.22284 6.4199C1.22284 3.54964 3.54964 1.22284 6.4199 1.22284C9.29016 1.22284 11.617 3.54964 11.617 6.4199C11.617 9.29016 9.29016 11.617 6.4199 11.617C3.54964 11.617 1.22284 9.29016 1.22284 6.4199Z" fill="#8E8E93"/>
</svg>
