<svg width="30" height="23" viewBox="0 0 30 23" fill="none" xmlns="http://www.w3.org/2000/svg">
<path fill-rule="evenodd" clip-rule="evenodd" d="M23.9137 11.1559C23.9014 11.1536 23.8893 11.1512 23.8772 11.1488C23.1155 11.9619 22.2829 12.3684 21.3794 12.3684C20.4759 12.3684 19.6341 11.9619 18.854 11.1488C16.6715 10.9747 15.5802 9.3394 15.5802 6.24306C15.5802 3.40836 16.7189 1.54531 18.9963 0.653925C19.0356 0.638551 19.0752 0.624461 19.1152 0.611649C19.0579 1.06698 19.0283 1.53097 19.0283 2.00185C19.0283 5.81672 20.9674 9.17869 23.9137 11.1559ZM11.522 14.4408C10.6729 14.2122 9.84469 14.0999 8.82014 14.0999C4.19714 14.0999 0.920489 16.6761 0.04733 20.1552L0.0210887 20.2815C0.00706497 20.3663 0 20.4522 0 20.5383C0 21.4073 0.704481 22.1118 1.5735 22.1118L9.42186 22.1129C9.464 22.1129 9.50609 22.1101 9.54785 22.1044C10.0603 22.0349 10.4193 21.5631 10.3498 21.0507L10.3308 20.882C10.3206 20.7688 10.3154 20.6541 10.3154 20.5383C10.3154 20.3318 10.3323 20.1257 10.3825 19.8332L10.429 19.6189L10.5268 19.2578C10.8973 17.9863 11.4175 16.8984 12.2262 15.9084L12.3143 15.7906C12.3546 15.7265 12.3861 15.6572 12.408 15.5844C12.5423 15.1375 12.2888 14.6663 11.8419 14.532L11.522 14.4408ZM29.914 20.0072C29.0728 16.491 25.8591 14.0999 21.3388 14.0999C16.7158 14.0999 13.4391 16.6761 12.566 20.1552L12.5397 20.2815C12.5257 20.3663 12.5186 20.4522 12.5186 20.5383C12.5186 21.4073 13.2231 22.1118 14.0921 22.1118H28.4498C28.555 22.1118 28.66 22.1011 28.7631 22.0798C29.6014 21.9068 30.1407 21.087 29.9677 20.2487L29.914 20.0072ZM13.2553 5.03655C13.3476 1.90226 11.7733 0.567721 10.1157 0.170583C8.4982 -0.216955 7.48959 0.0558263 7.08988 0.988928C6.69467 0.84736 6.27558 0.84736 5.83263 0.988928C4.71674 1.34779 4.13967 2.79364 4.10143 5.32647C3.74202 5.49948 3.56231 5.92093 3.56231 6.59082C3.56231 7.2607 3.74202 7.67442 4.10143 7.83196C5.05808 10.8862 6.64558 12.4133 8.86392 12.4133C11.0823 12.4133 12.5417 10.8862 13.2423 7.83196C13.6246 7.61237 13.8157 7.19866 13.8157 6.59082C13.8157 5.91683 13.4777 5.5863 13.3197 5.43172C13.2639 5.37719 13.2305 5.34455 13.2423 5.32647L13.2553 5.03655Z" fill="#A4AAB2"/>
</svg>
